<?xml version="1.0" encoding="UTF-8" standalone="no"?>
<!-- Created with Inkscape (http://www.inkscape.org/) -->

<svg
   width="60mm"
   height="60mm"
   viewBox="0 0 60 60"
   version="1.1"
   id="svg1"
   xml:space="preserve"
   sodipodi:docname="logos.svg"
   inkscape:version="1.3.2 (091e20e, 2023-11-25, custom)"
   inkscape:export-filename="Curso Front End\proyecto\imgs\512px.png"
   inkscape:export-xdpi="216.74667"
   inkscape:export-ydpi="216.74667"
   xmlns:inkscape="http://www.inkscape.org/namespaces/inkscape"
   xmlns:sodipodi="http://sodipodi.sourceforge.net/DTD/sodipodi-0.dtd"
   xmlns="http://www.w3.org/2000/svg"
   xmlns:svg="http://www.w3.org/2000/svg"><sodipodi:namedview
     id="namedview1"
     pagecolor="#ffffff"
     bordercolor="#000000"
     borderopacity="0.25"
     inkscape:showpageshadow="2"
     inkscape:pageopacity="0.0"
     inkscape:pagecheckerboard="0"
     inkscape:deskcolor="#d1d1d1"
     inkscape:document-units="mm"
     showguides="true"
     inkscape:zoom="0.5"
     inkscape:cx="359"
     inkscape:cy="-513"
     inkscape:window-width="1920"
     inkscape:window-height="1009"
     inkscape:window-x="1352"
     inkscape:window-y="-8"
     inkscape:window-maximized="1"
     inkscape:current-layer="layer1" /><defs
     id="defs1" /><g
     inkscape:label="Capa 1"
     inkscape:groupmode="layer"
     id="layer1"><path
       sodipodi:type="star"
       style="display:inline;fill:#ff0000;stroke-width:0.264583"
       id="path1"
       inkscape:flatsided="false"
       sodipodi:sides="7"
       sodipodi:cx="102.52605"
       sodipodi:cy="108.8099"
       sodipodi:r1="11.012118"
       sodipodi:r2="8.0911398"
       sodipodi:arg1="0.047113222"
       sodipodi:arg2="0.52109025"
       inkscape:rounded="0.25"
       inkscape:randomized="0.031"
       d="m 113.62482,109.66453 c -0.0819,1.3129 -3.77591,2.08886 -4.3828,3.28189 -0.5634,1.10756 0.42568,3.80541 -0.59389,4.51494 -1.09826,0.7643 -3.35878,-1.10096 -4.65529,-0.80873 -1.20361,0.2713 -3.00184,2.8928 -4.188845,2.56626 -1.278612,-0.35174 -1.66415,-3.91861 -2.691679,-4.77547 -0.953907,-0.79547 -4.267203,-0.29649 -4.717204,-1.44961 -0.484733,-1.24211 2.243131,-3.76068 2.299658,-5.07667 0.05248,-1.22169 -2.315697,-3.47051 -1.665218,-4.52949 0.700682,-1.14071 3.784489,-0.65044 4.884945,-1.37589 1.021609,-0.67347 1.753762,-3.820246 2.963103,-4.016742 1.30267,-0.211662 2.79303,3.010382 4.04284,3.416252 1.16026,0.37679 4.09858,-1.839865 5.01249,-0.99735 0.98445,0.90755 -0.5631,4.28876 -0.0707,5.54229 0.45711,1.16372 3.83861,2.4895 3.7626,3.70832 z"
       inkscape:transform-center-x="-1.3334275"
       inkscape:transform-center-y="-2.891831"
       transform="matrix(2.5040111,0,0,2.7301941,-227.86746,-266.54281)"
       inkscape:label="LOGO MINI" /></g></svg>
