<?xml version="1.0" encoding="UTF-8" standalone="no"?>
<!-- Created with Inkscape (http://www.inkscape.org/) -->

<svg
   width="60mm"
   height="60mm"
   viewBox="0 0 60 60"
   version="1.1"
   id="svg1"
   xml:space="preserve"
   sodipodi:docname="logos.svg"
   inkscape:version="1.3.2 (091e20e, 2023-11-25, custom)"
   inkscape:export-filename="Curso Front End\proyecto\imgs\favicon.svg"
   inkscape:export-xdpi="216.74667"
   inkscape:export-ydpi="216.74667"
   xmlns:inkscape="http://www.inkscape.org/namespaces/inkscape"
   xmlns:sodipodi="http://sodipodi.sourceforge.net/DTD/sodipodi-0.dtd"
   xmlns="http://www.w3.org/2000/svg"
   xmlns:svg="http://www.w3.org/2000/svg"><sodipodi:namedview
     id="namedview1"
     pagecolor="#ffffff"
     bordercolor="#000000"
     borderopacity="0.25"
     inkscape:showpageshadow="2"
     inkscape:pageopacity="0.0"
     inkscape:pagecheckerboard="0"
     inkscape:deskcolor="#d1d1d1"
     inkscape:document-units="mm"
     showguides="true"
     inkscape:zoom="0.5"
     inkscape:cx="359"
     inkscape:cy="-513"
     inkscape:window-width="1920"
     inkscape:window-height="1009"
     inkscape:window-x="1352"
     inkscape:window-y="-8"
     inkscape:window-maximized="1"
     inkscape:current-layer="layer1" /><defs
     id="defs1" /><g
     inkscape:label="Capa 1"
     inkscape:groupmode="layer"
     id="layer1"><g
       id="g33-3-8-5-7"
       inkscape:label="LOGO #4"
       transform="matrix(1.8386762,0,0,1.8386762,-622.21151,-430.53842)"
       inkscape:export-filename="Curso Front End\proyecto\imgs\lgoo2.svg"
       inkscape:export-xdpi="108.78568"
       inkscape:export-ydpi="108.78568"><path
         sodipodi:type="star"
         style="display:inline;opacity:1;fill:#ff0000;stroke-width:0.264583"
         id="path12-5-1-6"
         inkscape:flatsided="false"
         sodipodi:sides="7"
         sodipodi:cx="102.52605"
         sodipodi:cy="108.8099"
         sodipodi:r1="11.012118"
         sodipodi:r2="8.0911398"
         sodipodi:arg1="0.047113222"
         sodipodi:arg2="0.52109025"
         inkscape:rounded="0.25"
         inkscape:randomized="0.031"
         d="m 113.62482,109.66453 c -0.0819,1.3129 -3.77591,2.08886 -4.3828,3.28189 -0.5634,1.10756 0.42568,3.80541 -0.59389,4.51494 -1.09826,0.7643 -3.35878,-1.10096 -4.65529,-0.80873 -1.20361,0.2713 -3.00184,2.8928 -4.188845,2.56626 -1.278612,-0.35174 -1.66415,-3.91861 -2.691679,-4.77547 -0.953907,-0.79547 -4.267203,-0.29649 -4.717204,-1.44961 -0.484733,-1.24211 2.243131,-3.76068 2.299658,-5.07667 0.05248,-1.22169 -2.315697,-3.47051 -1.665218,-4.52949 0.700682,-1.14071 3.784489,-0.65044 4.884945,-1.37589 1.021609,-0.67347 1.753762,-3.820246 2.963103,-4.016742 1.30267,-0.211662 2.79303,3.010382 4.04284,3.416252 1.16026,0.37679 4.09858,-1.839865 5.01249,-0.99735 0.98445,0.90755 -0.5631,4.28876 -0.0707,5.54229 0.45711,1.16372 3.83861,2.4895 3.7626,3.70832 z"
         inkscape:transform-center-x="-0.42553337"
         inkscape:transform-center-y="-0.92286231"
         transform="matrix(0.79909993,0,0,0.8712813,280.00874,155.83773)"
         inkscape:label="STAR LOGO" /><path
         style="opacity:1;fill:#000000;fill-opacity:1;stroke-width:0.220111"
         d="m 338.6461,245.76231 c -0.0901,1.04101 0.15931,2.3476 0.96558,3.01225 0.68144,0.56174 1.58753,1.3017 2.46612,1.21229 1.05806,-0.10769 1.44333,0.07 2.23546,-0.60197 0.64887,-0.55042 0.73251,-0.97149 0.95049,-1.38962 0.21327,-0.40905 1.56506,-1.32866 1.66874,-1.23184 0.0786,0.0733 -0.92049,3.26046 -2.2441,3.84315 -1.81719,0.8 -2.72861,1.89215 -4.10062,3.90998 -0.7029,1.03378 -1.86979,3.89741 -1.41058,3.99039 0.45673,0.0925 0.96703,0.31882 2.09271,0.0487 0.66638,-0.15992 2.30993,-0.12368 2.99447,0.0523 0.97948,0.25181 4.55463,-0.58149 6.38293,-0.23652 1.02254,0.19295 1.24241,-0.65622 1.23495,-0.99342 -0.0145,-0.65583 0.28767,-0.27096 0.64653,-1.94662 0.4438,-2.07223 -1.19986,-3.44361 -2.5863,-3.58368 -1.5447,-0.15606 -3.70923,1.03982 -4.15461,2.49001 -0.29283,0.95348 -2.17662,1.7297 -2.44874,1.49949 -0.49458,-0.41837 -0.52373,-1.41716 -0.0138,-1.99474 2.34789,-2.65907 11.80865,-7.66496 8.48195,-9.91014 -1.08921,-0.73511 -3.3072,-0.81986 -4.5337,-0.50388 -2.53913,0.3461 -8.28112,-1.66559 -8.62748,2.33387 z"
         id="path27-4-3-5-2"
         sodipodi:nodetypes="sssssssssssssssssssss"
         inkscape:label="Z" /></g></g></svg>
